<?xml version="1.0" encoding="UTF-8" standalone="no"?>
<!DOCTYPE svg PUBLIC "-//W3C//DTD SVG 1.1//EN" "http://www.w3.org/Graphics/SVG/1.1/DTD/svg11.dtd">
<svg width="100%" height="100%" viewBox="0 0 1606 1752" version="1.1" xmlns="http://www.w3.org/2000/svg" xmlns:xlink="http://www.w3.org/1999/xlink" xml:space="preserve" xmlns:serif="http://www.serif.com/" style="fill-rule:evenodd;clip-rule:evenodd;stroke-linejoin:round;stroke-miterlimit:2;">
    <g transform="matrix(1,0,0,1,-207.823,-98.0975)">
        <g transform="matrix(1.43477,0,0,1.43477,2663.1,-111.033)">
            <path d="M-1210.34,919.353C-1210.79,919.967 -1210.96,920.738 -1210.83,921.486C-1210.7,922.234 -1210.26,922.896 -1209.63,923.316C-1199.54,930.017 -1161.44,955.336 -1161.44,955.336C-1188.38,957.974 -1219.3,957.017 -1233.53,956.343C-1234.66,948 -1236.68,938.639 -1239.54,929.183L-1233.51,920.961C-1233.25,920.607 -1232.98,920.272 -1232.68,919.956C-1222.06,905.298 -1203.01,879.276 -1203.01,879.276C-1202.79,878.984 -1202.57,878.707 -1202.33,878.444L-1149.26,806.089C-1148.97,809.069 -1148.59,812.293 -1148.06,815.709C-1146.02,829.154 -1142.86,836.957 -1140.13,841.958C-1139.1,843.842 -1137.93,845.622 -1137,846.952C-1138.06,848.33 -1139.6,850.271 -1141.35,852.313C-1161.81,876.172 -1169.38,913.601 -1136.34,928.659C-1126.47,933.157 -1117.68,934.39 -1109.89,933.438C-1114.74,938.609 -1118.87,942.625 -1122.15,945.288C-1125.59,948.08 -1130.88,950.091 -1137.29,951.626C-1137.29,951.626 -1188.72,917.453 -1200.13,909.875C-1201.37,909.049 -1203.04,909.348 -1203.92,910.553C-1206.04,913.459 -1208.22,916.446 -1210.34,919.353ZM-649.015,254.992C-646.465,258.802 -646.291,263.893 -648.9,267.947L-880.641,628.017C-903.492,660.373 -936.548,706.849 -971.185,754.429C-987.535,752.21 -1002.85,752.779 -1007.95,753.065C-1022.53,748.687 -1046.44,734.894 -1067.48,713.928C-1070.19,711.222 -1072.86,708.394 -1075.46,705.449L-717.398,217.227C-715.525,214.673 -712.705,212.979 -709.571,212.526C-706.452,212.075 -703.282,212.89 -700.769,214.789L-688.467,199.077C-689.415,194.551 -688.564,189.67 -685.748,185.595L-663.414,153.277C-660.675,149.314 -656.418,146.661 -651.654,145.95C-646.889,145.238 -642.043,146.53 -638.266,149.52L-598.927,180.656C-595.045,183.727 -592.654,188.305 -592.349,193.245C-592.044,198.185 -593.854,203.022 -597.328,206.548L-624.03,233.648C-627.403,237.071 -631.874,238.824 -636.371,238.843L-649.015,254.992ZM-689.677,223.234L-659.716,246.047L-649.704,233.26L-679.967,210.832L-689.677,223.234ZM-1249.14,614.277C-1249.91,559.004 -1219.01,495.908 -1141.27,425.755C-1066.32,358.115 -884.752,308.645 -814.356,301.476L-814.234,301.463C-812.04,301.242 -809.921,302.334 -808.83,304.25C-807.739,306.167 -807.879,308.546 -809.188,310.32C-828.197,336.095 -880.486,406.991 -890.116,420.047C-891.09,421.367 -892.596,422.192 -894.233,422.301C-921.248,424.279 -1016.36,436.614 -1081.74,513.108C-1117.91,555.431 -1129.96,594.575 -1128.34,628.77C-1126.6,665.623 -1108.87,697.024 -1086.86,720.994C-1084.87,723.156 -1082.85,725.259 -1080.8,727.299C-1056.15,751.863 -1027.76,767.314 -1011.42,771.702C-1010.37,771.983 -1009.28,772.082 -1008.2,771.993C-1008.2,771.993 -997.481,771.09 -984.026,772.016C-977.418,772.471 -970.152,773.366 -963.173,775.026C-961.162,775.504 -959.175,776.046 -957.234,776.659C-945.527,780.357 -935.039,786.487 -935.722,799.474C-936.14,807.403 -938.383,813.155 -942.105,817.137C-947.949,823.39 -956.851,825.256 -965.492,825.687C-979.609,826.393 -993.5,822.822 -997.592,821.659C-998.373,821.437 -998.797,821.303 -998.797,821.303C-1002.81,820.033 -1007.18,821.577 -1009.51,825.087C-1011.84,828.597 -1011.56,833.224 -1008.82,836.428L-1008.73,836.544C-1007.65,837.835 -997.883,849.749 -992.957,864.105C-990.266,871.949 -988.845,880.636 -992.493,888.367C-994.883,893.433 -999.476,897.901 -1006.81,901.602C-1018.39,907.45 -1027.83,902.859 -1035.27,895.379C-1038.75,891.876 -1041.86,887.8 -1044.6,883.569C-1048.53,877.496 -1051.71,871.103 -1054.13,865.627C-1056.99,859.189 -1058.8,854.018 -1059.6,852.122C-1061.28,848.107 -1065.49,845.765 -1069.79,846.455C-1074.09,847.144 -1077.36,850.684 -1077.71,855.025C-1078.54,865.533 -1082.65,884.943 -1091.83,899.331C-1096.46,906.597 -1102.35,912.679 -1110.32,914.388C-1115.57,915.513 -1121.58,914.642 -1128.52,911.482C-1139.51,906.474 -1141.54,896.844 -1139.18,887.188C-1137.24,879.201 -1132.65,871.164 -1127.02,864.599C-1122.01,858.752 -1119.46,855.264 -1118.34,852.86L-1117.47,850.553L-1116.97,847.803L-1117.09,844.866L-1117.78,842.259C-1118.31,840.859 -1119.17,839.38 -1120.42,837.649C-1122.69,834.521 -1126.93,829.074 -1129.4,812.865C-1131.76,797.397 -1131.09,786.465 -1131.09,786.465C-1131,785.001 -1131.24,783.565 -1131.79,782.255C-1132.52,780.481 -1133.79,778.94 -1135.46,777.878C-1140.04,774.988 -1144.53,772.025 -1148.93,768.988C-1200.42,733.449 -1239.55,687.831 -1247.63,633.149C-1248.54,626.964 -1249.05,620.672 -1249.14,614.277ZM-1160.01,784.265C-1182.31,814.976 -1213.47,857.741 -1248.57,905.465C-1252.31,897.538 -1256.66,890.148 -1261.58,883.935C-1274.99,866.989 -1292.39,858.39 -1312.61,865.833C-1331.73,872.868 -1342.15,884.215 -1346.62,896.761C-1350.81,908.549 -1349.73,921.737 -1344.53,934.368C-1341.99,940.517 -1338.47,946.532 -1334.18,952.148C-1344.67,950.027 -1355.93,948.322 -1366.63,948.412C-1386.74,948.582 -1404.87,954.813 -1415.32,972.433C-1424.62,988.119 -1420.45,1002.27 -1409.17,1013.68C-1400.91,1022.03 -1388.25,1028.69 -1375.43,1032.91C-1380.24,1036.53 -1385.14,1040.77 -1389.22,1045.45C-1400,1057.79 -1405.07,1072.76 -1395.61,1087.81C-1393.9,1090.53 -1392.1,1093.02 -1390.21,1095.29C-1422.66,1137.96 -1453.4,1177.6 -1479.16,1209.53C-1483.07,1214.37 -1490.08,1215.35 -1495.16,1211.76C-1555.07,1169.41 -1681.78,1101.9 -1648.38,923.829C-1658.15,918.633 -1674.35,908.789 -1687.67,894.727C-1700.98,880.668 -1711.29,862.552 -1711.27,841.045C-1711.25,826.869 -1706.78,811.056 -1695.04,793.879C-1683.63,777.174 -1671.24,767.57 -1659.02,762.559C-1638.86,754.295 -1618.62,758.273 -1601.63,766.541C-1590.56,771.928 -1580.97,779.1 -1573.95,785.164C-1549.26,737.014 -1513.2,698.635 -1458.85,675.918C-1466.3,666.079 -1476,651.634 -1482.73,635.599C-1490.86,616.217 -1494.43,594.669 -1486.93,575.478C-1481.8,562.348 -1471.59,550.037 -1453.49,540.364C-1437.31,531.719 -1423.06,529.674 -1410.72,531.485C-1392.19,534.203 -1377.57,545.855 -1366.84,559.835C-1356.47,573.358 -1349.84,588.882 -1346.4,598.345C-1317.67,598.473 -1291.6,601.9 -1267.97,608.334C-1268.21,617.747 -1267.62,626.941 -1266.3,635.908C-1257.52,695.328 -1215.85,745.561 -1160.01,784.265ZM-951.287,758.742C-913.434,706.754 -878.056,656.973 -856.322,626.201C-854.981,624.302 -852.603,623.435 -850.354,624.026C-848.106,624.616 -846.46,626.539 -846.225,628.852C-840.755,686.103 -839.008,797.771 -892.394,885.107C-942.436,966.973 -1008.79,1047.59 -1147.2,1069.56C-1154.54,1070.72 -1161.53,1071.62 -1168.17,1072.3C-1232.41,1078.85 -1264.33,1064.47 -1264.33,1064.47C-1267.78,1062.86 -1271.86,1063.49 -1274.66,1066.06C-1284.36,1074.93 -1304.94,1088.56 -1326.66,1094.29C-1338.13,1097.32 -1350.03,1098.12 -1360.48,1094.09C-1367.2,1091.51 -1373.33,1086.93 -1378.37,1079.68C-1378.79,1079.06 -1379.21,1078.42 -1379.62,1077.77C-1384.13,1070.59 -1380.14,1063.75 -1375,1057.86C-1364.21,1045.51 -1346.42,1036.9 -1346.42,1036.9C-1346.26,1036.82 -1346.1,1036.74 -1345.94,1036.65C-1343.58,1035.33 -1341.96,1033.09 -1341.37,1030.55C-1341.07,1029.27 -1341.04,1027.92 -1341.31,1026.57C-1342.15,1022.37 -1345.72,1019.26 -1350,1019C-1364.54,1018.13 -1384.98,1011.3 -1395.75,1000.41C-1400.79,995.305 -1403.24,989.074 -1399.08,982.059C-1392.19,970.441 -1379.73,967.4 -1366.47,967.288C-1342.77,967.088 -1316.23,976.235 -1302.37,978.256C-1301.83,978.334 -1301.32,978.401 -1300.82,978.457C-1296.29,978.967 -1292.04,976.164 -1290.73,971.796C-1289.91,969.092 -1290.37,966.267 -1291.8,964.015C-1292.68,962.63 -1293.93,961.462 -1295.47,960.673C-1309.55,953.482 -1321.46,940.789 -1327.07,927.176C-1330.41,919.077 -1331.52,910.648 -1328.83,903.089C-1325.92,894.905 -1318.56,888.136 -1306.09,883.547C-1294.11,879.137 -1284.33,885.61 -1276.38,895.65C-1270.37,903.244 -1265.38,912.873 -1261.47,922.983C-1258.16,931.557 -1255.63,940.478 -1253.92,948.795C-1252.66,954.975 -1251.84,960.821 -1251.51,965.946C-1251.19,970.66 -1247.44,974.417 -1242.73,974.738C-1242.73,974.738 -1191.89,978.179 -1152.92,973.387C-1147.69,972.745 -1142.67,971.925 -1137.97,970.929C-1130.2,969.283 -1123.32,967.158 -1117.83,964.559C-1114.87,963.159 -1112.32,961.623 -1110.26,959.95C-1099.67,951.366 -1080.39,928.893 -1056.75,899.056C-1054.27,902.484 -1051.57,905.755 -1048.66,908.684C-1035.57,921.856 -1018.69,928.749 -998.3,918.452C-986.357,912.423 -979.315,904.675 -975.421,896.422C-969.642,884.174 -970.839,870.406 -975.103,857.979C-976.818,852.98 -979.012,848.223 -981.304,843.94C-976.053,844.523 -970.317,844.828 -964.55,844.54C-951.005,843.864 -937.476,839.828 -928.314,830.027C-922.033,823.306 -917.576,813.848 -916.872,800.466C-915.694,778.067 -931.136,765.176 -951.287,758.742ZM-1181.05,1092.29L-1354.13,1361.06C-1355.89,1363.79 -1358.7,1365.67 -1361.89,1366.27C-1365.09,1366.87 -1368.39,1366.12 -1371.01,1364.2L-1483.65,1282.04C-1486.18,1280.19 -1487.87,1277.41 -1488.35,1274.31C-1488.84,1271.21 -1488.06,1268.05 -1486.21,1265.52L-1372.04,1109.85C-1361.39,1115.11 -1349.53,1116.53 -1337.45,1115.39C-1310.11,1112.79 -1281.64,1096.13 -1266.42,1083.84C-1254.94,1087.73 -1226.54,1095.05 -1181.05,1092.29Z" style="fill:white;"/>
        </g>
    </g>
</svg>
